PathFileType	4	(X/Y/Z)	Walk9.trc
DataRate	CameraRate	NumFrames	NumMarkers	Units	OrigDataRate	OrigDataStartFrame	OrigNumFrames
200.000000	200.000000	9	59	mm	200.000000	477	603
Frame#	Times		LFHD		RFHD		RASI		RACR1		RUA1		RFA1		RWRR		RCAR		LACR1		LUA1		LElbow		LWRU		RTH2		RMT5		LTH3		LLFC		LTB1		LMT1		LTB4		LMT5		RLFC		LTB2		CLAV		LTB3		LToe		STRN		LFA1		LTH2		LTH4		LLMAL		RBHD		RTH3		LASI		LTH1		RMT1		RBack		RElbowM		C7		LPSI		LCAR		LBHD		RToe		RPSI		RCAL		RElbow		RTH4		RLMAL		RTH1		RTB2		RTB3		RTB4		LWRR		RTB1		RMMAL		LMMAL		T10		RWRU		LCAL		LElbowM
			X1	Y1	Z1	X2	Y2	Z2	X3	Y3	Z3	X4	Y4	Z4	X5	Y5	Z5	X6	Y6	Z6	X7	Y7	Z7	X8	Y8	Z8	X9	Y9	Z9	X10	Y10	Z10	X11	Y11	Z11	X12	Y12	Z12	X13	Y13	Z13	X14	Y14	Z14	X15	Y15	Z15	X16	Y16	Z16	X17	Y17	Z17	X18	Y18	Z18	X19	Y19	Z19	X20	Y20	Z20	X21	Y21	Z21	X22	Y22	Z22	X23	Y23	Z23	X24	Y24	Z24	X25	Y25	Z25	X26	Y26	Z26	X27	Y27	Z27	X28	Y28	Z28	X29	Y29	Z29	X30	Y30	Z30	X31	Y31	Z31	X32	Y32	Z32	X33	Y33	Z33	X34	Y34	Z34	X35	Y35	Z35	X36	Y36	Z36	X37	Y37	Z37	X38	Y38	Z38	X39	Y39	Z39	X40	Y40	Z40	X41	Y41	Z41	X42	Y42	Z42	X43	Y43	Z43	X44	Y44	Z44	X45	Y45	Z45	X46	Y46	Z46	X47	Y47	Z47	X48	Y48	Z48	X49	Y49	Z49	X50	Y50	Z50	X51	Y51	Z51	X52	Y52	Z52	X53	Y53	Z53	X54	Y54	Z54	X55	Y55	Z55	X56	Y56	Z56	X57	Y57	Z57	X58	Y58	Z58	X59	Y59	Z59

477	2.385	562.79	1564.4	17.472	568.01	1564.4	115.17	491.3	946.44	227.98	433.97	1366.2	239.47	417.13	1222.4	330.33	478.92	946.57	384.48	485.64	843.78	419.65	527.56	792.54	397.62	428.33	1364.8	-116.77	392.24	1223.9	-198.06	313.43	1093.5	-234.61	295.95	856.96	-312.09	437.2	619.8	215.35	359.38	26.939	172.44	503.83	562.55	-159.76	508.62	494.99	-142.74	595.51	358.46	-53.782	745.36	90.489	-78.346	606.43	274.28	-67.094	721.25	68.712	-158.1	350.7	451.61	196.36	595.59	281.43	-127.37	502.69	1332.6	63.181	624.25	190.84	-78.21	778.15	107.55	-86.511	562.69	1213.9	68.554	342.95	966.34	-277.99	536.53	663.42	-163.5	482	645.31	-182.91	599.92	86.079	-140.45	398.72	1572.9	132.52	364.59	544.26	212.71	498.79	965.41	-128.05	463.01	726.39	-202.8	370	34.347	79.606	291.64	1307.2	171.95	348.99	1036.7	299.22	345.47	1413.6	78.588	263.91	985.76	-56.378	325.66	804.36	-318.85	409.24	1560.2	-2.6604	417.47	30.646	88.745	247.16	983.64	76.52	181.94	34.112	122.09	392.39	1060.9	377.48	380.12	627.76	231.17	241	69.227	164.51	407.81	705.3	252.56	331.78	262.42	173.75	313.96	175.21	113.09	340.43	256.34	111.7	353.3	844.15	-265.35	379.29	334.34	110.06	257.36	75.165	78.012	618.67	94	-58.024	282.53	1086.4	40.311	509	844.21	348.96	565.57	29.194	-92.219	310.73	1050.2	-134.64
478	2.39	567.34	1563.7	16.615	572.58	1563.6	114.31	495.11	945.91	227.69	438.14	1365.8	238.68	421.88	1222	329.46	483.83	946.53	384.09	490.79	843.84	419.45	532.79	792.65	397.44	432.66	1364.2	-117.5	395.93	1223.3	-198.69	316.7	1093.1	-234.96	297.18	856.71	-312.32	440.57	619.24	215.18	359.34	26.929	172.46	507.26	561.12	-160.08	513.75	494.23	-142.27	601.66	358.88	-52.483	755.25	92.526	-76.735	613.85	274.81	-65.907	731.83	70.309	-156.59	353.53	451.25	196.18	603.53	281.95	-126.25	507.08	1332	62.6	632.77	191.58	-77.085	787.96	109.88	-84.632	567.1	1213.4	68.62	345.2	965.75	-278.39	540.19	661.98	-163.31	485.79	644	-183.26	610.15	86.566	-139.68	403.31	1572.4	131.71	367.77	543.9	212.49	503.93	964.59	-128.14	467.07	725.16	-203.04	370.03	34.375	79.639	295.93	1306.5	171.07	353.58	1036.3	298.95	349.83	1413	77.795	268.69	985.17	-57.477	326.4	803.84	-319.14	413.77	1559.6	-3.4664	417.5	30.617	88.82	251.45	983.17	75.37	182.01	34.612	122.03	397.16	1060.7	377.03	383.51	627.33	230.89	241.13	69.521	164.49	411.37	704.85	252.28	333.22	262.21	173.75	314.88	175	113.24	341.91	256.04	111.54	354.57	843.47	-265.77	381.52	333.71	110.08	257.61	75.444	77.987	628.27	94.728	-57.091	286.99	1085.7	39.37	514.09	844.18	348.73	576.19	29.126	-91.635	314.06	1049.9	-134.9
479	2.395	571.87	1562.9	15.728	577.13	1562.9	113.43	498.97	945.38	227.35	442.28	1365.4	237.86	426.58	1221.6	328.58	488.69	946.49	383.64	495.87	843.9	419.2	537.96	792.76	397.22	437.01	1363.5	-118.27	399.66	1222.7	-199.33	320.01	1092.7	-235.34	298.5	856.42	-312.56	443.98	618.66	215	359.3	26.922	172.48	510.98	559.79	-160.38	519.15	493.54	-141.82	607.74	359.19	-51.261	764.47	94.258	-75.054	621	275.23	-64.725	741.71	71.651	-154.98	356.38	450.88	195.98	611.17	282.34	-125.13	511.46	1331.4	61.972	640.86	192.19	-75.907	797.13	111.85	-82.695	571.5	1212.8	68.619	347.51	965.13	-278.79	544	660.68	-163.09	489.77	642.77	-183.62	619.73	86.956	-138.78	407.88	1571.9	130.86	370.98	543.53	212.26	509.1	963.76	-128.26	471.23	723.95	-203.34	370.06	34.399	79.674	300.2	1305.9	170.12	358.12	1035.9	298.65	354.17	1412.3	76.95	273.48	984.57	-58.578	327.24	803.29	-319.42	418.28	1559	-4.3155	417.52	30.586	88.896	255.76	982.68	74.224	182.08	35.146	121.97	401.9	1060.5	376.54	386.93	626.92	230.64	241.27	69.834	164.47	414.98	704.39	251.99	334.68	262	173.76	315.81	174.81	113.4	343.38	255.76	111.34	355.92	842.76	-266.18	383.75	333.07	110.08	257.87	75.748	77.968	637.25	95.343	-56.049	291.47	1085	38.412	519.11	844.14	348.46	586.09	29.045	-90.92	317.43	1049.5	-135.19
480	2.4	576.39	1562.1	14.811	581.66	1562.1	112.52	502.87	944.84	226.97	446.41	1365	236.99	431.24	1221.3	327.68	493.5	946.43	383.14	500.89	843.94	418.9	543.06	792.84	396.96	441.38	1362.7	-119.08	403.43	1222.1	-200.01	323.36	1092.2	-235.74	299.9	856.1	-312.8	447.43	618.07	214.81	359.26	26.918	172.5	515.02	558.58	-160.61	524.81	492.91	-141.37	613.76	359.38	-50.118	773.02	95.659	-73.302	627.89	275.51	-63.553	750.9	72.706	-153.27	359.26	450.51	195.78	618.5	282.57	-124.02	515.85	1330.8	61.297	648.5	192.63	-74.681	805.68	113.42	-80.693	575.91	1212.2	68.544	349.87	964.48	-279.21	547.98	659.55	-162.85	493.96	641.62	-183.97	628.65	87.221	-137.77	412.43	1571.3	129.96	374.22	543.15	212.03	514.31	962.91	-128.4	475.49	722.79	-203.69	370.1	34.421	79.714	304.46	1305.3	169.12	362.6	1035.6	298.32	358.51	1411.7	76.05	278.28	983.95	-59.678	328.18	802.73	-319.7	422.79	1558.4	-5.2082	417.54	30.555	88.975	260.1	982.17	73.083	182.17	35.716	121.92	406.6	1060.4	376.02	390.38	626.51	230.43	241.43	70.165	164.44	418.64	703.92	251.68	336.16	261.79	173.75	316.74	174.62	113.55	344.84	255.5	111.09	357.36	842.02	-266.58	385.98	332.44	110.08	258.14	76.075	77.956	645.62	95.816	-54.901	295.97	1084.3	37.441	524.07	844.09	348.14	595.26	28.926	-90.081	320.84	1049.2	-135.49
481	2.405	580.91	1561.4	13.863	586.17	1561.3	111.57	506.83	944.31	226.55	450.52	1364.6	236.09	435.85	1220.9	326.77	498.25	946.37	382.59	505.83	843.97	418.55	548.09	792.92	396.65	445.77	1362	-119.93	407.23	1221.4	-200.7	326.74	1091.7	-236.17	301.39	855.75	-313.04	450.92	617.48	214.61	359.22	26.915	172.51	519.44	557.53	-160.75	530.73	492.35	-140.92	619.73	359.44	-49.052	780.9	96.708	-71.477	634.52	275.64	-62.393	759.39	73.449	-151.48	362.15	450.14	195.57	625.52	282.65	-122.91	520.24	1330.2	60.572	655.71	192.9	-73.413	813.59	114.59	-78.622	580.31	1211.6	68.391	352.3	963.8	-279.65	552.15	658.61	-162.57	498.39	640.55	-184.3	636.92	87.338	-136.65	416.96	1570.7	129.02	377.49	542.76	211.79	519.56	962.04	-128.56	479.88	721.66	-204.09	370.13	34.439	79.758	308.72	1304.6	168.07	367.04	1035.2	297.96	362.85	1411	75.095	283.08	983.31	-60.777	329.22	802.14	-319.97	427.29	1557.9	-6.1446	417.55	30.521	89.056	264.47	981.63	71.949	182.25	36.324	121.86	411.26	1060.2	375.46	393.87	626.11	230.25	241.59	70.514	164.42	422.35	703.44	251.35	337.67	261.6	173.75	317.68	174.43	113.69	346.28	255.25	110.82	358.88	841.26	-266.98	388.21	331.8	110.08	258.42	76.425	77.955	653.38	96.121	-53.652	300.49	1083.6	36.457	528.97	844.02	347.78	603.69	28.75	-89.125	324.3	1048.8	-135.83
482	2.41	585.42	1560.6	12.884	590.66	1560.5	110.6	510.84	943.77	226.1	454.61	1364.2	235.14	440.42	1220.6	325.85	502.94	946.29	382	510.71	843.99	418.15	553.05	792.98	396.3	450.18	1361.2	-120.83	411.08	1220.6	-201.43	330.16	1091.2	-236.63	302.97	855.36	-313.28	454.44	616.87	214.39	359.17	26.914	172.51	524.27	556.62	-160.78	536.87	491.85	-140.45	625.63	359.36	-48.061	788.14	97.391	-69.58	640.89	275.61	-61.248	767.21	73.865	-149.6	365.07	449.77	195.35	632.22	282.54	-121.82	524.63	1329.6	59.798	662.49	192.97	-72.108	820.89	115.34	-76.481	584.71	1211	68.158	354.79	963.08	-280.1	556.55	657.86	-162.24	503.08	639.57	-184.59	644.54	87.29	-135.43	421.47	1570.2	128.04	380.79	542.37	211.55	524.82	961.16	-128.74	484.4	720.57	-204.51	370.18	34.454	79.806	312.96	1303.9	166.96	371.42	1034.9	297.56	367.18	1410.4	74.084	287.89	982.65	-61.873	330.35	801.52	-320.25	431.78	1557.3	-7.1249	417.56	30.484	89.14	268.87	981.07	70.823	182.34	36.973	121.81	415.86	1060	374.85	397.41	625.71	230.08	241.78	70.882	164.39	426.12	702.95	251	339.19	261.42	173.74	318.62	174.27	113.83	347.71	255.03	110.51	360.49	840.48	-267.38	390.43	331.16	110.08	258.71	76.798	77.964	660.52	96.241	-52.309	305.03	1082.9	35.463	533.79	843.94	347.38	611.39	28.504	-88.063	327.8	1048.3	-136.19
483	2.415	589.92	1559.8	11.875	595.14	1559.8	109.6	514.9	943.22	225.62	458.7	1363.8	234.16	444.94	1220.3	324.91	507.57	946.21	381.36	515.51	844	417.7	557.94	793.03	395.92	454.61	1360.4	-121.78	414.97	1219.9	-202.19	333.62	1090.6	-237.11	304.64	854.93	-313.53	458	616.26	214.16	359.13	26.915	172.52	529.53	555.88	-160.69	543.21	491.4	-139.96	631.47	359.14	-47.141	794.75	97.702	-67.613	646.99	275.42	-60.119	774.36	73.942	-147.63	368.01	449.4	195.12	638.6	282.25	-120.73	529.03	1328.9	58.974	668.86	192.84	-70.771	827.6	115.66	-74.271	589.11	1210.4	67.844	357.35	962.33	-280.56	561.18	657.32	-161.87	508.07	638.69	-184.82	651.53	87.067	-134.11	425.96	1569.6	127.01	384.12	541.96	211.31	530.11	960.26	-128.95	489.07	719.51	-204.96	370.23	34.466	79.859	317.21	1303.2	165.8	375.74	1034.5	297.12	371.51	1409.7	73.015	292.71	981.97	-62.966	331.59	800.88	-320.53	436.27	1556.7	-8.149	417.56	30.445	89.226	273.31	980.49	69.705	182.44	37.665	121.75	420.41	1059.8	374.21	400.99	625.3	229.91	241.97	71.27	164.36	429.93	702.45	250.64	340.73	261.25	173.73	319.57	174.12	113.95	349.13	254.81	110.19	362.2	839.67	-267.78	392.64	330.51	110.09	259.02	77.195	77.983	667.08	96.164	-50.879	309.59	1082.1	34.457	538.54	843.84	346.93	618.36	28.179	-86.906	331.35	1047.8	-136.57
484	2.42	594.41	1559.1	10.834	599.6	1559	108.56	519.01	942.67	225.11	462.78	1363.4	233.13	449.41	1220	323.96	512.12	946.11	380.68	520.23	843.99	417.2	562.74	793.07	395.48	459.06	1359.6	-122.78	418.9	1219.1	-202.99	337.12	1090	-237.62	306.4	854.46	-313.78	461.59	615.63	213.93	359.08	26.915	172.52	535.23	555.3	-160.46	549.72	490.99	-139.45	637.25	358.78	-46.283	800.75	97.638	-65.582	652.84	275.06	-59.004	780.87	73.678	-145.59	370.97	449.03	194.89	644.67	281.78	-119.66	533.43	1328.3	58.1	674.81	192.51	-69.405	833.72	115.55	-71.994	593.52	1209.7	67.447	359.97	961.56	-281.05	566.06	656.97	-161.44	513.35	637.9	-184.96	657.9	86.666	-132.71	430.42	1569	125.94	387.48	541.55	211.08	535.42	959.35	-129.17	493.92	718.49	-205.41	370.28	34.476	79.916	321.44	1302.6	164.58	380	1034.2	296.65	375.83	1409	71.888	297.54	981.27	-64.054	332.93	800.21	-320.8	440.75	1556.1	-9.2166	417.56	30.402	89.315	277.78	979.89	68.595	182.54	38.402	121.71	424.9	1059.6	373.53	404.61	624.89	229.74	242.19	71.68	164.32	433.8	701.94	250.26	342.3	261.09	173.71	320.52	174	114.07	350.57	254.61	109.86	364.01	838.85	-268.19	394.84	329.86	110.1	259.34	77.616	78.015	673.07	95.884	-49.37	314.17	1081.3	33.44	543.21	843.74	346.44	624.64	27.772	-85.667	334.95	1047.3	-137
485	2.425	598.89	1558.3	9.7629	604.04	1558.2	107.5	523.18	942.12	224.58	466.85	1363	232.06	453.82	1219.7	322.99	516.61	946	379.96	524.87	843.96	416.66	567.46	793.09	395.01	463.54	1358.7	-123.83	422.88	1218.2	-203.82	340.67	1089.3	-238.16	308.26	853.96	-314.04	465.21	615.01	213.69	359.03	26.916	172.51	541.36	554.86	-160.09	556.37	490.62	-138.89	642.94	358.28	-45.481	806.17	97.202	-63.494	658.44	274.55	-57.902	786.77	73.076	-143.49	373.96	448.66	194.66	650.42	281.12	-118.6	537.83	1327.6	57.174	680.37	191.98	-68.015	839.3	115.01	-69.655	597.93	1209.1	66.968	362.65	960.75	-281.55	571.22	656.8	-160.95	518.94	637.2	-185	663.68	86.09	-131.23	434.87	1568.4	124.82	390.87	541.13	210.84	540.73	958.43	-129.42	498.97	717.51	-205.85	370.34	34.486	79.976	325.68	1301.9	163.32	384.21	1033.9	296.13	380.14	1408.3	70.703	302.37	980.55	-65.138	334.38	799.51	-321.08	445.22	1555.5	-10.328	417.56	30.355	89.405	282.3	979.26	67.493	182.65	39.186	121.67	429.32	1059.4	372.81	408.28	624.47	229.54	242.42	72.114	164.29	437.71	701.43	249.87	343.89	260.94	173.7	321.49	173.9	114.17	352.02	254.4	109.55	365.91	838	-268.6	397	329.2	110.14	259.67	78.064	78.057	678.5	95.404	-47.793	318.78	1080.5	32.411	547.81	843.62	345.9	630.23	27.29	-84.361	338.61	1046.7	-137.45
